<svg xmlns="http://www.w3.org/2000/svg" width="128" height="128" viewBox="0 0 128 128">
  <rect width="128" height="128" fill="#2b2a31"/>
  <g fill="#57555f" stroke="#918c9d" stroke-width="2">
    <polygon points="4,8 34,6 30,34 6,36"/>
    <polygon points="38,6 70,10 66,36 34,34"/>
    <polygon points="74,8 122,6 118,30 72,34"/>
    <polygon points="8,40 44,38 42,68 6,70"/>
    <polygon points="48,40 86,44 82,72 44,68"/>
    <polygon points="90,38 120,40 122,72 86,70"/>
    <polygon points="4,74 34,76 30,104 2,102"/>
    <polygon points="38,74 70,76 72,110 36,108"/>
    <polygon points="76,76 124,74 120,108 74,110"/>
    <polygon points="8,108 44,112 42,124 4,124"/>
    <polygon points="48,112 84,110 86,124 44,124"/>
    <polygon points="88,112 122,110 124,124 90,124"/>
  </g>
  <g stroke="#d9d1bd" stroke-width="1.2" opacity="0.45">
    <line x1="12" y1="14" x2="24" y2="26"/>
    <line x1="52" y1="18" x2="64" y2="24"/>
    <line x1="84" y1="18" x2="110" y2="24"/>
    <line x1="16" y1="86" x2="28" y2="94"/>
    <line x1="56" y1="86" x2="62" y2="100"/>
    <line x1="96" y1="88" x2="112" y2="94"/>
  </g>
</svg>
